<svg xmlns="http://www.w3.org/2000/svg" xmlns:xlink="http://www.w3.org/1999/xlink" width="20" height="17" viewBox="0 0 20 17">
  <defs>
    <clipPath id="clip-path">
      <rect id="사각형_266" data-name="사각형 266" width="20" height="17" transform="translate(0 -0.2)" fill="red" stroke="#707070" stroke-width="1"/>
    </clipPath>
  </defs>
  <g id="마스크_그룹_44" data-name="마스크 그룹 44" transform="translate(0 0.2)" clip-path="url(#clip-path)">
    <g id="download" transform="translate(0.952 -0.133)">
      <g id="그룹_290" data-name="그룹 290" transform="translate(0 0)">
        <path id="패스_468" data-name="패스 468" d="M17.04,17.839a.5.5,0,0,0-.5.51V22.99a2.273,2.273,0,0,1-2.252,2.286H3.258A2.273,2.273,0,0,1,1.005,22.99V18.273a.5.5,0,1,0-1.005,0V22.99A3.286,3.286,0,0,0,3.258,26.3H14.285a3.286,3.286,0,0,0,3.258-3.307V18.349A.507.507,0,0,0,17.04,17.839Z" transform="translate(0 -9.793)" fill="red"/>
        <path id="패스_469" data-name="패스 469" d="M13.952,13.8a.5.5,0,0,0,.354.151.487.487,0,0,0,.354-.151l3.194-3.242a.514.514,0,0,0,0-.722.5.5,0,0,0-.711,0L14.808,12.2V1.853a.5.5,0,1,0-1.005,0V12.2L11.465,9.831a.5.5,0,0,0-.711,0,.514.514,0,0,0,0,.722Z" transform="translate(-5.534 -1.343)" fill="red"/>
      </g>
    </g>
  </g>
</svg>
