<svg xmlns="http://www.w3.org/2000/svg" xmlns:xlink="http://www.w3.org/1999/xlink" width="28" height="26" viewBox="0 0 28 26">
  <defs>
    <clipPath id="clip-path">
      <rect id="사각형_254" data-name="사각형 254" width="28" height="26" transform="translate(1105 527)" fill="#4cfb63" stroke="#707070" stroke-width="1"/>
    </clipPath>
  </defs>
  <g id="마스크_그룹_43" data-name="마스크 그룹 43" transform="translate(-1105 -527)" opacity="0.46" clip-path="url(#clip-path)">
    <g id="checked" transform="translate(1106 527)">
      <g id="그룹_287" data-name="그룹 287">
        <g id="그룹_286" data-name="그룹 286">
          <path id="패스_465" data-name="패스 465" d="M26,13A13,13,0,1,0,13,26,13.015,13.015,0,0,0,26,13ZM1.84,13A11.16,11.16,0,1,1,13,24.16,11.172,11.172,0,0,1,1.84,13Z" fill="#4cfb63"/>
          <path id="패스_466" data-name="패스 466" d="M17.137,9.9a.923.923,0,0,0-1.3,0l-4.244,4.244-1.422-1.422a.922.922,0,0,0-1.3,1.3L10.934,16.1a.92.92,0,0,0,1.3,0l4.893-4.893A.913.913,0,0,0,17.137,9.9Z" fill="#4cfb63"/>
        </g>
      </g>
    </g>
  </g>
</svg>
