<svg xmlns="http://www.w3.org/2000/svg" xmlns:xlink="http://www.w3.org/1999/xlink" width="186" height="170" viewBox="0 0 186 170">
  <defs>
    <clipPath id="clip-path">
      <rect id="사각형_291" data-name="사각형 291" width="186" height="170" transform="translate(872 358)" fill="#fff" stroke="#707070" stroke-width="1"/>
    </clipPath>
    <linearGradient id="linear-gradient" y1="0.504" x2="1" y2="0.504" gradientUnits="objectBoundingBox">
      <stop offset="0" stop-color="#00f2fe"/>
      <stop offset="0.021" stop-color="#03effe"/>
      <stop offset="0.293" stop-color="#24d2fe"/>
      <stop offset="0.554" stop-color="#3cbdfe"/>
      <stop offset="0.796" stop-color="#4ab0fe"/>
      <stop offset="1" stop-color="#4facfe"/>
    </linearGradient>
  </defs>
  <g id="logInImg" transform="translate(593 1891)">
    <g id="마스크_그룹_52" data-name="마스크 그룹 52" transform="translate(-1465 -2249)" clip-path="url(#clip-path)">
      <path id="login" d="M141.913,143.419a6.64,6.64,0,1,1,6.585-6.64A6.613,6.613,0,0,1,141.913,143.419Zm21.629-29.014a17.737,17.737,0,0,0-16.192-10.493H126.769A17.436,17.436,0,0,0,110.3,115.136c-.346.908-.769,2.051-1.211,3.384H65.97a6.56,6.56,0,0,0-4.725,2.015L49.933,132.283a6.679,6.679,0,0,0,.028,9.279l11.524,11.823a6.559,6.559,0,0,0,4.7,1.986h21.4a6.64,6.64,0,0,0,0-13.28H68.943l-5.08-5.212,4.892-5.08h45.271a6.6,6.6,0,0,0,6.4-5.061,55.2,55.2,0,0,1,2.168-6.838,4.315,4.315,0,0,1,4.2-2.709h20.549a4.49,4.49,0,0,1,4.183,2.633,43.171,43.171,0,0,1,3.895,16.927,44.45,44.45,0,0,1-3.865,17.228,4.5,4.5,0,0,1-4.136,2.718h-20.8a4.688,4.688,0,0,1-4.246-2.941,44.4,44.4,0,0,1-2.04-6.572,6.588,6.588,0,1,0-12.809,3.091,57.488,57.488,0,0,0,2.674,8.545A17.765,17.765,0,0,0,126.6,169.978h20.826a17.652,17.652,0,0,0,16.193-10.69,57.872,57.872,0,0,0,4.963-22.567A56.6,56.6,0,0,0,163.542,114.406ZM49.883,163.339a6.613,6.613,0,0,1-6.585,6.64H19.984A19.817,19.817,0,0,1,4.5,162.552a20.286,20.286,0,0,1-4.071-16.9A86.748,86.748,0,0,1,29.907,96.6,85.364,85.364,0,0,1,57.5,81.31a45,45,0,1,1,71.568-36.16,45.235,45.235,0,0,1-17.963,36.137q1.655.55,3.291,1.166a6.656,6.656,0,0,1,3.85,8.55,6.569,6.569,0,0,1-8.48,3.882,71.606,71.606,0,0,0-23.785-4.62c-.562.021-1.126.036-1.693.036s-1.121-.014-1.678-.035a72.92,72.92,0,0,0-69.292,58.091,6.981,6.981,0,0,0,1.395,5.816,6.673,6.673,0,0,0,5.268,2.525H43.3A6.613,6.613,0,0,1,49.883,163.339ZM82.748,76.983c.514-.009,1.029-.017,1.544-.017s1.026.008,1.539.017a31.611,31.611,0,1,0-3.083,0Z" transform="translate(880.842 358)" fill="url(#linear-gradient)"/>
    </g>
    <circle id="타원_69" data-name="타원 69" cx="13.5" cy="13.5" r="13.5" transform="translate(-438 -1833)" fill="#ffd35b"/>
  </g>
</svg>
