<svg xmlns="http://www.w3.org/2000/svg" xmlns:xlink="http://www.w3.org/1999/xlink" width="16" height="15" viewBox="0 0 16 15">
  <defs>
    <clipPath id="clip-path">
      <rect id="사각형_157" data-name="사각형 157" width="16" height="15" transform="translate(-0.487 -0.054)" fill="#fff" stroke="#707070" stroke-width="1"/>
    </clipPath>
  </defs>
  <g id="마스크_그룹_20" data-name="마스크 그룹 20" transform="translate(0.487 0.054)" clip-path="url(#clip-path)">
    <g id="upload" transform="translate(-0.074 0.349)">
      <g id="그룹_212" data-name="그룹 212">
        <path id="패스_427" data-name="패스 427" d="M14.935,9.742a.418.418,0,0,0-.441.4v3.6a1.885,1.885,0,0,1-1.974,1.775H2.855A1.885,1.885,0,0,1,.881,13.74V10.08a.418.418,0,0,0-.441-.4.418.418,0,0,0-.441.4V13.74a2.726,2.726,0,0,0,2.855,2.567h9.665a2.725,2.725,0,0,0,2.855-2.567v-3.6A.42.42,0,0,0,14.935,9.742Z" transform="translate(0 -3.498)" fill="#fff"/>
        <path id="패스_428" data-name="패스 428" d="M6.536,3.926,8.585,2.084v8.034a.443.443,0,0,0,.881,0V2.084l2.049,1.842a.47.47,0,0,0,.31.117.449.449,0,0,0,.31-.117.367.367,0,0,0,0-.56L9.336.849a.472.472,0,0,0-.31-.117.451.451,0,0,0-.31.117l-2.8,2.517a.367.367,0,0,0,0,.56A.477.477,0,0,0,6.536,3.926Z" transform="translate(-1.338 -0.732)" fill="#fff"/>
      </g>
    </g>
  </g>
</svg>
